<?xml version="1.0" standalone="no"?>
<!DOCTYPE svg PUBLIC "-//W3C//DTD SVG 20010904//EN"
 "http://www.w3.org/TR/2001/REC-SVG-20010904/DTD/svg10.dtd">
<svg version="1.0" xmlns="http://www.w3.org/2000/svg"
 width="700.000000pt" height="700.000000pt" viewBox="0 0 700.000000 700.000000"
 preserveAspectRatio="xMidYMid meet">
<metadata>
Created by potrace 1.14, written by Peter Selinger 2001-2017
</metadata>
<g transform="translate(0.000000,700.000000) scale(0.100000,-0.100000)"
fill="#000000" stroke="none">
<path d="M0 3500 l0 -3500 3500 0 3500 0 0 3500 0 3500 -3500 0 -3500 0 0
-3500z m1820 2664 l36 -6 -18 -161 c-17 -150 -18 -325 -21 -2407 -1 -1235 2
-2370 6 -2522 l9 -277 -216 -3 -217 -3 8 325 c10 431 10 4497 0 4813 l-8 247
193 0 c106 0 209 -3 228 -6z m2310 -450 l0 -196 -27 6 c-16 3 -119 8 -230 12
l-203 7 0 -241 0 -242 240 0 241 0 -8 -197 c-10 -248 -10 -540 -1 -795 l8
-198 -240 0 -240 0 0 -301 0 -301 148 5 c81 3 184 8 230 12 l82 6 0 -196 c0
-181 -1 -197 -17 -191 -25 10 -773 25 -1238 26 l-410 0 0 1342 c0 1322 -2
1415 -32 1586 l-5 32 613 1 c338 1 688 5 779 9 91 3 198 7 238 8 l72 2 0 -196z
m1075 176 c363 -5 662 -9 664 -9 6 -1 -7 -86 -55 -376 -112 -673 -189 -968
-388 -1496 l-55 -143 24 -41 c93 -156 272 -369 402 -477 66 -55 193 -145 289
-205 17 -10 4 -26 -136 -167 -85 -86 -159 -156 -164 -156 -16 0 -98 71 -224
194 -111 108 -248 270 -371 439 -23 31 -45 57 -50 57 -5 0 -36 -37 -69 -82
-124 -170 -309 -355 -498 -499 l-97 -74 -26 35 c-14 19 -77 86 -138 150 -126
129 -123 114 -33 163 183 100 415 317 567 531 l62 87 -25 57 c-103 232 -167
410 -243 677 -65 227 -156 634 -185 830 -2 17 -10 63 -16 103 l-12 74 -69 -7
-69 -7 0 182 0 183 128 -7 c70 -4 424 -11 787 -16z m-2951 -942 c3 -13 17 -93
31 -178 15 -85 58 -328 96 -539 38 -211 69 -389 69 -396 0 -7 -23 -19 -52 -25
-29 -7 -111 -30 -182 -51 -71 -22 -135 -39 -142 -39 -14 0 -12 -13 -113 627
-44 274 -77 501 -75 505 2 4 77 30 167 58 89 28 167 53 172 55 20 7 25 4 29
-17z m-1075 -60 c111 -20 185 -37 188 -45 7 -17 -59 -418 -118 -723 -83 -422
-162 -735 -184 -726 -50 19 -322 96 -345 98 -17 1 -30 7 -30 13 0 6 11 45 25
86 71 206 154 595 226 1052 24 152 46 277 49 277 3 0 88 -14 189 -32z m3217
-2235 c-4 -87 -9 -180 -13 -207 l-6 -48 599 7 c329 4 635 8 679 9 l80 1 3
-193 2 -194 -57 6 c-32 3 -338 8 -680 12 l-623 7 0 -348 0 -348 558 6 c536 6
797 15 1041 37 71 7 118 7 124 1 10 -10 6 -385 -4 -395 -3 -3 -187 -1 -410 4
-460 11 -1637 12 -2657 1 -594 -6 -694 -9 -702 -21 -6 -10 -10 65 -10 203 l0
219 58 -6 c229 -24 862 -45 1390 -46 l222 0 0 346 0 347 -627 -7 c-346 -3
-661 -9 -700 -12 l-73 -6 0 197 0 197 93 -6 c50 -3 366 -9 701 -12 l609 -7 -7
99 c-3 54 -9 147 -12 207 l-5 107 217 0 217 0 -7 -157z"/>
<path d="M2840 5300 l0 -240 244 0 245 0 0 240 1 240 -245 0 -245 0 0 -240z"/>
<path d="M2847 4713 c-4 -3 -7 -118 -7 -254 l0 -248 474 0 475 -1 -2 253 -2
252 -466 3 c-256 1 -469 -1 -472 -5z"/>
<path d="M2840 3570 l0 -300 245 0 244 0 1 300 0 300 -245 0 -245 0 0 -300z"/>
<path d="M4800 5519 c0 -85 92 -571 151 -799 51 -198 159 -525 169 -514 7 9
81 223 115 333 59 194 123 485 165 751 17 102 32 200 35 218 l6 32 -321 0
c-319 0 -320 0 -320 -21z"/>
</g>
</svg>
