<?xml version="1.0" standalone="no"?>
<!DOCTYPE svg PUBLIC "-//W3C//DTD SVG 20010904//EN"
 "http://www.w3.org/TR/2001/REC-SVG-20010904/DTD/svg10.dtd">
<svg version="1.0" xmlns="http://www.w3.org/2000/svg"
 width="1024.000000pt" height="1024.000000pt" viewBox="0 0 1024.000000 1024.000000"
 preserveAspectRatio="xMidYMid meet">
<metadata>
Created by potrace 1.14, written by Peter Selinger 2001-2017
</metadata>
<g transform="translate(0.000000,1024.000000) scale(0.100000,-0.100000)"
fill="#000000" stroke="none">
<path d="M0 5120 l0 -5120 5120 0 5120 0 0 5120 0 5120 -5120 0 -5120 0 0
-5120z m2324 4023 c149 -37 241 -126 288 -282 20 -64 21 -88 18 -780 -2 -690
-1 -714 17 -708 10 3 46 16 80 29 55 20 67 21 117 11 31 -7 77 -26 102 -44 54
-37 82 -91 159 -304 87 -241 79 -290 85 550 5 669 7 747 24 815 51 213 170
341 362 390 75 19 112 20 1113 20 1105 0 1088 1 1190 -48 111 -52 194 -212
195 -377 1 -190 -86 -362 -214 -421 -78 -37 -141 -44 -390 -44 l-240 0 0 -231
0 -231 248 4 c307 4 357 -6 459 -89 27 -21 54 -58 75 -101 l33 -67 3 -640 c2
-430 -1 -661 -8 -703 -25 -147 -88 -241 -199 -301 -98 -52 -178 -65 -393 -63
l-188 2 0 -235 0 -235 293 0 c240 0 303 -3 347 -16 60 -18 142 -67 179 -108
14 -14 27 -26 31 -26 3 0 14 24 23 54 19 59 37 80 146 171 79 66 232 234 328
361 97 127 195 284 190 303 -22 78 -304 810 -359 931 -166 364 -185 424 -175
558 13 190 149 340 353 388 140 33 262 5 347 -81 39 -39 107 -158 107 -188 0
-7 13 -33 28 -58 15 -24 56 -122 90 -216 80 -223 129 -330 143 -316 29 29 163
464 214 698 15 66 38 149 52 185 53 133 47 164 -37 181 -25 4 -263 8 -530 9
-534 0 -561 3 -671 62 -78 41 -143 113 -185 202 -57 124 -65 195 -39 321 41
193 167 322 348 355 38 8 309 10 815 7 735 -3 760 -4 852 -25 313 -72 458
-265 420 -564 -5 -45 -37 -193 -69 -328 -186 -771 -391 -1421 -607 -1928 l-74
-174 91 -126 c190 -262 344 -447 596 -719 192 -208 234 -286 234 -431 0 -87
-5 -119 -34 -192 -51 -131 -121 -209 -232 -262 -59 -27 -73 -30 -143 -26 -88
4 -172 37 -264 106 -78 57 -250 241 -358 382 -129 168 -230 289 -313 376 l-69
74 -55 -88 c-167 -267 -372 -479 -538 -559 -194 -92 -361 -59 -537 105 -30 28
-48 39 -48 30 0 -9 -6 -21 -14 -27 -34 -28 -26 -49 29 -75 74 -37 140 -98 169
-159 32 -66 46 -158 46 -319 l0 -128 745 0 c709 0 748 -1 800 -19 113 -40 179
-106 226 -229 43 -114 24 -267 -48 -374 -44 -66 -78 -94 -156 -127 l-62 -26
-752 -3 -753 -2 0 -200 0 -200 993 0 c1077 0 1046 1 1157 -55 96 -49 148 -112
185 -225 36 -108 13 -241 -59 -338 -38 -52 -70 -78 -135 -111 -103 -53 15 -51
-2683 -51 -1820 0 -2522 3 -2560 11 -207 44 -337 236 -301 444 23 134 95 229
215 286 l73 34 1095 5 1095 5 3 197 2 197 -812 3 -813 3 -70 29 c-168 71 -259
239 -235 435 18 137 89 235 209 283 l56 23 848 3 847 2 0 148 c0 154 15 249
44 281 40 44 73 43 -1001 41 -1099 -3 -1034 -6 -1139 48 -51 26 -130 111 -154
165 -53 118 -51 98 -50 1020 l1 857 -68 -37 c-58 -32 -77 -38 -128 -37 -76 0
-123 24 -192 96 -63 68 -98 136 -106 209 -7 59 -44 159 -58 159 -5 0 -9 -1061
-9 -2417 0 -2634 3 -2472 -56 -2598 -56 -117 -174 -197 -320 -218 -175 -24
-343 54 -413 193 -10 19 -27 67 -37 105 -18 68 -19 165 -19 3535 0 3335 1
3467 18 3525 53 172 157 265 334 299 72 14 92 13 187 -11z m-919 -1792 c73
-36 110 -78 131 -147 20 -69 21 -1648 0 -1716 -20 -69 -60 -114 -130 -148 -86
-43 -155 -48 -245 -21 -87 26 -139 70 -172 144 l-24 52 0 825 c0 674 3 832 14
865 55 162 255 230 426 146z"/>
<path d="M4051 7948 c-13 -7 -34 -26 -45 -41 -19 -26 -21 -44 -24 -223 l-4
-194 266 0 266 0 0 230 0 230 -174 0 c-95 0 -193 2 -217 5 -27 4 -53 1 -68 -7z"/>
<path d="M3980 6495 l0 -215 579 0 580 0 28 24 28 24 0 161 0 161 -28 27 -27
28 -580 3 -580 3 0 -216z"/>
<path d="M3982 5335 l3 -195 30 -30 c42 -41 106 -51 316 -48 l174 3 0 230 0
230 -263 3 -263 2 3 -195z"/>
</g>
</svg>
